<svg id="svg" version="1.1" xmlns="http://www.w3.org/2000/svg" xmlns:xlink="http://www.w3.org/1999/xlink" width="400" height="318.85714285714283" viewBox="0, 0, 400,318.85714285714283"><g id="svgg"><path id="path0" d="M187.102 0.286 C 187.005 0.443,185.955 0.739,184.770 0.943 C 152.449 6.508,126.641 31.773,120.566 63.797 C 120.183 65.814,119.649 67.713,119.380 68.017 C 118.922 68.533,116.971 68.576,90.402 68.655 C 67.531 68.723,61.832 68.822,61.499 69.155 C 60.885 69.769,60.902 84.212,61.517 84.953 C 61.910 85.426,64.211 85.483,86.184 85.560 C 109.753 85.644,110.431 85.663,110.871 86.265 C 111.520 87.152,111.551 183.131,110.903 184.370 C 110.674 184.809,106.680 190.263,102.027 196.491 C 84.488 219.971,75.158 233.277,75.340 234.550 C 75.616 236.482,77.906 236.352,90.750 233.675 C 103.873 230.940,112.146 230.040,126.635 229.769 C 151.715 229.301,169.421 231.756,190.431 238.612 C 196.931 240.734,198.601 240.593,209.569 237.002 C 228.384 230.842,242.383 228.734,261.722 229.147 C 282.474 229.591,297.143 230.961,310.686 233.721 C 323.499 236.333,323.644 236.245,318.470 229.027 C 314.173 223.032,304.384 210.678,293.126 197.044 C 289.538 192.699,285.921 188.277,285.088 187.217 L 283.573 185.291 283.573 135.885 L 283.573 86.480 284.282 85.983 C 285.231 85.318,305.877 85.242,307.177 85.899 L 307.974 86.302 308.134 96.250 C 308.315 107.571,308.351 107.735,310.407 106.684 C 315.748 103.951,358.852 77.716,358.852 77.198 C 358.852 76.388,357.647 75.523,352.313 72.499 C 349.856 71.106,339.544 65.188,329.397 59.347 C 319.249 53.506,310.517 48.564,309.993 48.366 C 308.212 47.694,308.134 48.114,308.134 58.411 C 308.134 66.319,308.065 67.647,307.633 68.079 C 307.191 68.521,305.306 68.581,291.733 68.581 C 273.893 68.581,275.615 68.970,274.812 64.753 C 268.783 33.087,245.782 9.056,214.673 1.918 C 212.305 1.374,209.702 0.721,208.889 0.465 C 207.193 -0.069,187.421 -0.231,187.102 0.286 M191.196 53.299 C 191.162 54.524,190.619 57.009,188.151 67.244 C 185.001 80.304,185.381 81.814,189.790 73.762 C 199.305 56.385,211.307 47.864,217.891 53.811 C 221.457 57.033,221.382 58.014,215.903 79.904 C 213.193 90.730,213.054 94.761,215.312 97.020 C 217.090 98.798,219.707 97.954,223.506 94.380 C 225.066 92.912,225.785 92.558,226.251 93.024 C 227.051 93.824,219.847 101.690,216.962 103.166 C 212.840 105.276,208.674 101.393,208.087 94.896 C 207.924 93.088,208.470 89.093,210.070 80.383 C 210.343 78.892,210.856 76.093,211.209 74.163 C 211.561 72.233,212.051 69.577,212.297 68.262 C 213.930 59.533,212.888 56.395,208.521 56.895 C 200.214 57.847,188.727 74.784,181.513 96.721 C 180.057 101.148,179.381 102.065,177.103 102.697 C 175.576 103.121,175.575 103.121,174.974 102.520 C 174.336 101.882,173.731 105.308,181.058 68.102 C 182.025 63.190,182.964 58.405,183.143 57.470 C 183.847 53.799,191.290 49.945,191.196 53.299 M122.797 102.153 C 125.222 108.578,125.881 110.126,127.828 113.979 C 141.284 140.601,167.334 156.459,197.608 156.459 C 231.710 156.459,260.809 135.933,271.770 104.147 C 273.491 99.157,274.032 98.729,274.365 102.098 C 274.725 105.748,274.674 175.100,274.311 175.779 C 273.833 176.672,122.231 176.761,121.490 175.868 C 121.061 175.350,120.619 101.016,121.039 99.921 C 121.376 99.042,121.849 99.642,122.797 102.153 M186.603 184.014 C 192.475 184.298,193.639 184.643,194.205 186.269 C 196.039 191.530,195.828 226.592,193.949 228.857 C 193.310 229.626,192.206 229.471,183.967 227.451 C 154.166 220.147,127.707 219.099,100.319 224.140 C 90.016 226.036,90.590 226.010,90.590 224.584 C 90.590 221.231,116.875 187.587,121.279 185.303 C 124.486 183.639,163.115 182.877,186.603 184.014 M264.593 184.377 C 273.353 185.109,273.424 185.140,278.780 190.469 C 288.217 199.861,300.441 215.082,303.256 220.949 C 305.025 224.636,304.236 225.144,298.405 224.069 C 277.587 220.231,251.801 219.740,232.217 222.809 C 225.291 223.894,217.266 225.615,209.250 227.734 C 204.745 228.925,203.380 228.979,202.740 227.990 C 201.250 225.690,200.851 194.708,202.218 187.571 C 202.666 185.236,203.360 184.940,209.729 184.371 C 213.744 184.012,260.285 184.017,264.593 184.377 M224.101 267.376 C 223.711 267.933,223.604 269.013,223.604 272.430 C 223.604 277.445,223.425 277.831,221.086 277.831 C 219.335 277.831,218.600 278.248,218.351 279.382 C 217.872 281.563,219.009 282.609,221.866 282.614 C 223.623 282.617,223.604 282.487,223.607 294.402 C 223.610 308.677,223.966 310.703,227.095 314.257 C 230.021 317.582,238.139 320.141,239.444 318.151 C 241.022 315.742,239.937 313.238,237.317 313.238 C 234.095 313.238,230.869 310.595,229.833 307.105 C 229.183 304.917,229.106 284.000,229.745 283.188 C 230.060 282.787,231.002 282.651,234.260 282.536 C 238.897 282.372,239.234 282.202,239.234 280.021 C 239.234 278.135,238.524 277.831,234.109 277.831 C 229.192 277.831,229.346 278.009,229.346 272.303 C 229.346 267.027,229.153 266.667,226.334 266.667 C 224.901 266.667,224.511 266.791,224.101 267.376 M14.833 277.627 C -3.967 282.821,-4.743 310.998,13.728 317.733 C 14.785 318.119,15.725 318.557,15.818 318.707 C 16.284 319.460,26.519 319.004,28.358 318.149 C 36.139 314.528,36.952 313.726,35.317 311.291 C 34.310 309.793,33.361 309.761,31.065 311.150 C 21.019 317.227,8.646 312.454,6.752 301.771 C 6.092 298.050,5.245 298.246,22.036 298.246 C 38.242 298.246,37.321 298.427,37.321 295.243 C 37.321 282.292,27.054 274.250,14.833 277.627 M98.659 277.647 C 95.478 278.677,93.663 279.814,91.109 282.378 C 88.620 284.876,88.381 284.855,88.009 282.110 C 87.570 278.881,85.889 277.836,81.123 277.833 C 78.016 277.831,77.512 278.162,77.512 280.207 C 77.512 281.827,77.867 282.193,79.729 282.491 C 82.466 282.928,82.297 281.754,82.297 300.248 C 82.297 319.176,82.112 318.022,85.136 318.022 C 88.166 318.022,88.038 318.524,88.038 306.645 C 88.038 295.379,88.293 293.383,90.183 289.849 C 94.026 282.663,104.511 279.625,109.339 284.298 C 111.507 286.396,111.710 287.814,111.928 302.392 C 112.168 318.438,111.996 318.022,118.408 318.022 C 122.116 318.022,122.648 317.728,122.648 315.672 C 122.648 313.872,122.378 313.602,120.253 313.266 C 117.607 312.847,117.704 313.302,117.697 301.295 C 117.689 288.004,117.313 285.181,115.105 281.847 C 112.149 277.386,105.057 275.574,98.659 277.647 M142.160 277.480 C 124.101 282.510,122.196 308.745,139.296 316.920 C 141.016 317.743,142.673 318.542,142.978 318.697 C 143.283 318.852,145.816 318.979,148.607 318.979 L 153.682 318.979 156.984 317.424 C 162.802 314.684,163.733 313.648,162.376 311.424 C 161.437 309.883,160.748 309.638,159.458 310.388 C 150.393 315.659,142.120 314.902,136.787 308.314 C 134.154 305.061,132.695 299.418,134.269 298.576 C 134.668 298.363,139.856 298.246,148.920 298.246 C 161.099 298.246,163.017 298.181,163.442 297.757 C 165.401 295.797,163.473 287.311,160.044 282.800 C 156.302 277.878,148.773 275.638,142.160 277.480 M289.321 277.553 C 269.597 282.847,267.861 308.310,286.603 317.426 L 289.793 318.978 294.791 318.979 C 298.529 318.979,300.016 318.863,300.692 318.517 C 301.189 318.263,302.528 317.637,303.668 317.128 C 314.554 312.262,319.100 298.993,313.634 288.038 C 309.460 279.674,298.704 275.035,289.321 277.553 M342.743 277.469 C 339.945 278.273,337.617 279.644,335.218 281.898 C 332.872 284.102,332.170 284.337,331.872 283.014 C 331.291 280.436,331.042 279.801,330.358 279.158 C 328.900 277.789,322.836 277.210,321.713 278.332 C 320.284 279.762,321.231 282.139,323.366 282.481 C 325.973 282.897,325.827 281.871,325.919 300.432 C 326.012 319.283,325.799 318.022,328.880 318.022 C 331.492 318.022,331.419 318.313,331.419 307.848 C 331.419 294.409,332.176 290.996,336.094 286.764 C 340.904 281.569,350.057 280.449,353.272 284.664 C 355.098 287.058,355.143 287.429,355.330 301.595 C 355.521 316.096,355.520 316.085,357.671 317.397 C 359.187 318.322,364.622 318.313,365.550 317.384 C 367.048 315.887,365.950 313.238,363.831 313.238 C 363.237 313.238,362.411 312.963,361.997 312.628 L 361.244 312.019 361.070 299.470 C 360.877 285.607,360.774 284.910,358.394 281.313 C 355.948 277.617,348.551 275.801,342.743 277.469 M380.537 277.589 C 374.703 279.136,371.767 282.531,371.774 287.719 C 371.782 293.351,374.447 295.972,384.401 300.141 C 393.040 303.759,395.147 306.109,393.365 310.138 C 391.074 315.317,382.074 315.506,375.705 310.509 C 373.612 308.867,372.973 308.773,371.807 309.938 C 369.573 312.173,371.172 314.398,377.033 317.213 C 378.349 317.845,379.675 318.501,379.980 318.671 C 380.284 318.840,382.741 318.979,385.438 318.979 L 390.342 318.979 392.699 317.687 C 401.879 312.653,402.412 304.074,393.887 298.557 C 392.226 297.482,390.840 296.840,384.537 294.227 C 379.189 292.009,377.131 289.813,377.436 286.647 C 377.984 280.942,390.529 279.657,392.537 285.100 C 394.104 289.351,398.358 288.745,398.003 284.322 C 397.542 278.580,389.087 275.320,380.537 277.589 M265.310 277.858 C 262.527 278.514,260.027 280.271,257.891 283.070 C 256.562 284.813,255.931 284.602,255.471 282.264 C 254.782 278.764,253.348 277.836,248.626 277.833 C 245.504 277.831,244.911 278.167,244.863 279.967 C 244.820 281.626,245.336 282.216,247.056 282.474 C 249.741 282.877,249.581 281.790,249.761 300.751 C 249.848 309.987,250.036 317.723,250.178 317.943 C 250.340 318.192,251.188 318.341,252.441 318.341 C 255.592 318.341,255.429 318.935,255.583 306.858 C 255.795 290.210,258.534 284.629,267.145 283.301 C 270.000 282.860,270.629 282.212,270.410 279.934 C 270.184 277.581,268.828 277.029,265.310 277.858 M170.415 278.305 C 168.666 279.570,169.571 282.116,171.902 282.489 C 172.659 282.610,173.657 283.034,174.119 283.432 L 174.960 284.154 175.134 296.383 C 175.365 312.665,175.917 314.368,182.088 317.840 L 184.112 318.979 188.328 318.979 C 193.741 318.979,197.184 317.470,201.209 313.335 C 203.331 311.155,203.891 311.194,204.230 313.547 C 204.713 316.908,205.874 317.783,210.092 317.968 C 213.905 318.135,214.673 317.745,214.673 315.641 C 214.673 314.045,213.905 313.238,212.387 313.238 C 211.910 313.238,211.116 312.891,210.624 312.468 L 209.729 311.698 209.569 295.217 C 209.388 276.487,209.615 277.831,206.638 277.831 C 203.757 277.831,203.829 277.543,203.822 289.234 C 203.816 300.719,203.601 302.435,201.736 305.858 C 196.894 314.751,184.535 316.569,181.447 308.844 C 180.739 307.073,180.712 306.622,180.550 293.925 C 180.367 279.585,180.406 279.869,178.408 278.559 C 177.174 277.751,171.434 277.569,170.415 278.305 M24.980 282.732 C 28.142 284.279,30.439 287.550,31.083 291.424 C 31.485 293.842,31.801 293.780,19.020 293.780 C 5.578 293.780,5.838 293.882,7.954 289.409 C 11.034 282.900,18.965 279.789,24.980 282.732 M151.675 282.574 C 155.707 284.367,159.663 291.328,157.741 293.250 C 157.059 293.932,135.027 294.070,134.354 293.397 C 132.791 291.834,136.633 285.467,140.365 283.436 C 143.917 281.503,148.483 281.155,151.675 282.574 M297.963 282.298 C 302.419 283.130,306.466 286.342,308.665 290.794 L 309.888 293.270 309.887 297.752 L 309.886 302.233 308.710 304.709 C 301.416 320.065,279.426 314.852,279.426 297.767 C 279.426 287.469,287.878 280.416,297.963 282.298 M47.220 293.440 C 46.730 294.356,46.820 296.409,47.387 297.218 C 47.996 298.088,67.869 298.358,69.027 297.511 C 69.747 296.985,69.906 294.131,69.259 293.351 C 68.530 292.471,47.694 292.555,47.220 293.440 " stroke="none" fill="#f5f5f5" fill-rule="evenodd"></path><path id="path1" d="M0.000 147.209 C 0.000 228.174,0.060 294.418,0.134 294.418 C 0.208 294.418,0.704 293.062,1.238 291.405 C 4.194 282.222,11.219 276.874,20.321 276.874 C 30.274 276.874,37.321 284.489,37.321 295.243 C 37.321 298.427,38.242 298.246,22.036 298.246 C 5.245 298.246,6.092 298.050,6.752 301.771 C 8.646 312.454,21.019 317.227,31.065 311.150 C 33.361 309.761,34.310 309.793,35.317 311.291 C 36.934 313.700,36.015 314.622,28.549 318.081 L 26.954 318.820 56.061 318.901 C 102.344 319.031,143.481 318.849,142.584 318.520 C 131.453 314.431,125.754 304.353,128.054 292.823 C 131.639 274.850,156.004 270.732,162.516 286.999 C 163.539 289.557,164.438 294.562,164.149 296.101 C 163.727 298.354,164.495 298.246,148.920 298.246 C 139.856 298.246,134.668 298.363,134.269 298.576 C 132.695 299.418,134.154 305.061,136.787 308.314 C 142.120 314.902,150.393 315.659,159.458 310.388 C 160.748 309.638,161.437 309.883,162.376 311.424 C 163.723 313.633,162.822 314.654,157.097 317.400 L 153.907 318.930 168.820 318.955 C 177.022 318.968,183.732 318.910,183.732 318.825 C 183.732 318.740,183.009 318.305,182.126 317.857 C 176.093 314.800,175.363 312.558,175.134 296.383 L 174.960 284.154 174.119 283.432 C 173.657 283.034,172.659 282.610,171.902 282.489 C 170.050 282.192,169.697 281.825,169.697 280.192 C 169.697 278.095,170.459 277.723,174.431 277.883 C 180.525 278.128,180.342 277.649,180.550 293.925 C 180.712 306.622,180.739 307.073,181.447 308.844 C 184.535 316.569,196.894 314.751,201.736 305.858 C 203.601 302.435,203.816 300.719,203.822 289.234 C 203.829 277.543,203.757 277.831,206.638 277.831 C 209.615 277.831,209.388 276.487,209.569 295.217 L 209.729 311.698 210.624 312.468 C 211.116 312.891,211.910 313.238,212.387 313.238 C 213.905 313.238,214.673 314.045,214.673 315.641 C 214.673 317.745,213.905 318.135,210.092 317.968 C 205.874 317.783,204.713 316.908,204.230 313.547 C 203.891 311.194,203.331 311.155,201.209 313.335 C 199.450 315.143,196.813 316.975,194.297 318.138 L 192.823 318.820 203.748 318.904 C 209.757 318.950,219.589 318.950,225.598 318.904 L 236.523 318.820 234.291 318.238 C 225.138 315.853,223.611 312.446,223.607 294.402 C 223.604 282.487,223.623 282.617,221.866 282.614 C 218.990 282.609,217.811 281.493,218.362 279.299 C 218.632 278.222,219.373 277.831,221.142 277.831 C 223.417 277.831,223.604 277.417,223.604 272.374 C 223.604 267.040,223.783 266.667,226.334 266.667 C 229.159 266.667,229.346 267.020,229.346 272.359 C 229.346 278.010,229.188 277.831,234.165 277.831 C 238.519 277.831,239.234 278.140,239.234 280.021 C 239.234 282.202,238.897 282.372,234.260 282.536 C 231.002 282.651,230.060 282.787,229.745 283.188 C 229.106 284.000,229.183 304.917,229.833 307.105 C 230.869 310.595,234.095 313.238,237.317 313.238 C 239.937 313.238,241.022 315.742,239.444 318.151 L 238.901 318.979 264.107 318.979 C 277.971 318.979,289.314 318.917,289.314 318.840 C 289.314 318.764,287.986 318.068,286.364 317.293 C 265.416 307.301,271.726 276.874,294.746 276.874 C 318.071 276.874,324.177 309.786,302.330 317.752 C 301.301 318.127,300.383 318.557,300.290 318.707 C 300.197 318.857,318.117 318.979,340.236 318.979 C 362.299 318.979,380.215 318.859,380.048 318.713 C 379.881 318.566,378.920 318.100,377.913 317.676 C 373.778 315.937,370.394 313.042,370.765 311.561 C 371.409 308.998,373.273 308.601,375.705 310.509 C 382.074 315.506,391.074 315.317,393.365 310.138 C 395.147 306.109,393.040 303.759,384.401 300.141 C 374.447 295.972,371.782 293.351,371.774 287.719 C 371.764 280.834,378.006 276.387,386.859 276.970 C 393.825 277.430,397.653 279.955,398.003 284.322 C 398.358 288.745,394.104 289.351,392.537 285.100 C 390.529 279.657,377.984 280.942,377.436 286.647 C 377.131 289.813,379.189 292.009,384.537 294.227 C 390.840 296.840,392.226 297.482,393.887 298.557 C 396.266 300.097,397.598 301.466,398.829 303.639 L 399.841 305.423 399.921 152.818 C 399.965 68.885,399.952 0.165,399.893 0.106 C 399.835 0.047,356.593 0.035,303.801 0.079 C 229.449 0.141,208.103 0.244,209.091 0.536 C 209.793 0.743,212.305 1.361,214.673 1.909 C 245.858 9.128,268.783 33.084,274.812 64.753 C 275.615 68.970,273.893 68.581,291.733 68.581 C 305.306 68.581,307.191 68.521,307.633 68.079 C 308.065 67.647,308.134 66.319,308.134 58.411 C 308.134 48.114,308.212 47.694,309.993 48.366 C 310.517 48.564,319.249 53.506,329.397 59.347 C 339.544 65.188,349.856 71.106,352.313 72.499 C 357.647 75.523,358.852 76.388,358.852 77.198 C 358.852 77.716,315.748 103.951,310.407 106.684 C 308.351 107.735,308.315 107.571,308.134 96.250 L 307.974 86.302 307.177 85.899 C 305.877 85.242,285.231 85.318,284.282 85.983 L 283.573 86.480 283.573 135.885 L 283.573 185.291 285.088 187.217 C 285.921 188.277,289.538 192.699,293.126 197.044 C 304.384 210.678,314.173 223.032,318.470 229.027 C 323.644 236.245,323.499 236.333,310.686 233.721 C 297.143 230.961,282.474 229.591,261.722 229.147 C 242.383 228.734,228.384 230.842,209.569 237.002 C 197.451 240.970,197.497 240.970,185.236 236.954 C 159.780 228.615,121.414 227.284,90.750 233.675 C 77.906 236.352,75.616 236.482,75.340 234.550 C 75.158 233.277,84.488 219.971,102.027 196.491 C 106.680 190.263,110.674 184.809,110.903 184.370 C 111.551 183.131,111.520 87.152,110.871 86.265 C 110.431 85.663,109.753 85.644,86.184 85.560 C 64.211 85.483,61.910 85.426,61.517 84.953 C 60.902 84.212,60.885 69.769,61.499 69.155 C 61.832 68.822,67.531 68.723,90.402 68.655 C 116.971 68.576,118.922 68.533,119.380 68.017 C 119.649 67.713,120.183 65.814,120.566 63.797 C 126.641 31.773,152.449 6.508,184.770 0.943 C 185.955 0.739,187.005 0.443,187.102 0.286 C 187.206 0.118,148.776 -0.000,93.639 -0.000 L 0.000 0.000 0.000 147.209 M187.400 52.977 C 184.561 54.222,183.564 55.274,183.143 57.470 C 182.964 58.405,182.025 63.190,181.058 68.102 C 173.731 105.308,174.336 101.882,174.974 102.520 C 175.575 103.121,175.576 103.121,177.103 102.697 C 179.381 102.065,180.057 101.148,181.513 96.721 C 188.727 74.784,200.214 57.847,208.521 56.895 C 212.888 56.395,213.930 59.533,212.297 68.262 C 212.051 69.577,211.561 72.233,211.209 74.163 C 210.856 76.093,210.343 78.892,210.070 80.383 C 208.470 89.093,207.924 93.088,208.087 94.896 C 208.674 101.393,212.840 105.276,216.962 103.166 C 219.847 101.690,227.051 93.824,226.251 93.024 C 225.785 92.558,225.066 92.912,223.506 94.380 C 219.707 97.954,217.090 98.798,215.312 97.020 C 213.054 94.761,213.193 90.730,215.903 79.904 C 221.382 58.014,221.457 57.033,217.891 53.811 C 211.307 47.864,199.305 56.385,189.790 73.762 C 185.381 81.814,185.001 80.304,188.151 67.244 C 192.198 50.464,192.219 50.865,187.400 52.977 M121.039 99.921 C 120.619 101.016,121.061 175.350,121.490 175.868 C 122.231 176.761,273.833 176.672,274.311 175.779 C 274.674 175.100,274.725 105.748,274.365 102.098 C 274.032 98.729,273.491 99.157,271.770 104.147 C 260.809 135.933,231.710 156.459,197.608 156.459 C 167.334 156.459,141.284 140.601,127.828 113.979 C 125.881 110.126,125.222 108.578,122.797 102.153 C 121.849 99.642,121.376 99.042,121.039 99.921 M137.002 183.744 C 122.195 184.167,121.663 184.292,117.841 188.253 C 109.620 196.775,90.590 222.145,90.590 224.584 C 90.590 226.010,90.016 226.036,100.319 224.140 C 127.707 219.099,154.166 220.147,183.967 227.451 C 192.206 229.471,193.310 229.626,193.949 228.857 C 195.828 226.592,196.039 191.530,194.205 186.269 C 193.639 184.643,192.475 184.298,186.603 184.014 C 178.115 183.603,147.728 183.438,137.002 183.744 M209.729 184.371 C 203.360 184.940,202.666 185.236,202.218 187.571 C 200.851 194.708,201.250 225.690,202.740 227.990 C 203.380 228.979,204.745 228.925,209.250 227.734 C 217.266 225.615,225.291 223.894,232.217 222.809 C 251.801 219.740,277.587 220.231,298.405 224.069 C 304.236 225.144,305.025 224.636,303.256 220.949 C 300.441 215.082,288.217 199.861,278.780 190.469 C 273.424 185.140,273.353 185.109,264.593 184.377 C 260.285 184.017,213.744 184.012,209.729 184.371 M109.137 277.513 C 116.312 279.776,117.686 283.596,117.697 301.295 C 117.704 313.302,117.607 312.847,120.253 313.266 C 122.378 313.602,122.648 313.872,122.648 315.672 C 122.648 317.728,122.116 318.022,118.408 318.022 C 111.996 318.022,112.168 318.438,111.928 302.392 C 111.710 287.814,111.507 286.396,109.339 284.298 C 104.511 279.625,94.026 282.663,90.183 289.849 C 88.293 293.383,88.038 295.379,88.038 306.645 C 88.038 318.524,88.166 318.022,85.136 318.022 C 82.112 318.022,82.297 319.176,82.297 300.248 C 82.297 281.754,82.466 282.928,79.729 282.491 C 77.867 282.193,77.512 281.827,77.512 280.207 C 77.512 278.162,78.016 277.831,81.123 277.833 C 85.889 277.836,87.570 278.881,88.009 282.110 C 88.381 284.855,88.620 284.876,91.109 282.378 C 96.015 277.454,102.986 275.573,109.137 277.513 M352.518 277.501 C 359.855 279.768,360.830 282.273,361.070 299.470 L 361.244 312.019 361.997 312.628 C 362.411 312.963,363.237 313.238,363.831 313.238 C 365.261 313.238,366.188 314.179,366.188 315.630 C 366.188 317.598,365.410 318.023,361.802 318.021 C 355.477 318.019,355.549 318.202,355.330 301.595 C 355.143 287.429,355.098 287.058,353.272 284.664 C 350.057 280.449,340.904 281.569,336.094 286.764 C 332.176 290.996,331.419 294.409,331.419 307.848 C 331.419 318.313,331.492 318.022,328.880 318.022 C 325.799 318.022,326.012 319.283,325.919 300.432 C 325.827 281.871,325.973 282.897,323.366 282.481 C 321.231 282.139,320.284 279.762,321.713 278.332 C 322.836 277.210,328.900 277.789,330.358 279.158 C 331.042 279.801,331.291 280.436,331.872 283.014 C 332.170 284.337,332.872 284.102,335.218 281.898 C 340.019 277.386,346.674 275.694,352.518 277.501 M269.678 277.937 C 270.055 278.213,270.312 278.912,270.410 279.934 C 270.629 282.212,270.000 282.860,267.145 283.301 C 258.534 284.629,255.795 290.210,255.583 306.858 C 255.429 318.935,255.592 318.341,252.441 318.341 C 251.188 318.341,250.340 318.192,250.178 317.943 C 250.036 317.723,249.848 309.987,249.761 300.751 C 249.581 281.790,249.741 282.877,247.056 282.474 C 245.336 282.216,244.820 281.626,244.863 279.967 C 244.911 278.167,245.504 277.831,248.626 277.833 C 253.348 277.836,254.782 278.764,255.471 282.264 C 255.931 284.602,256.562 284.813,257.891 283.070 C 261.108 278.853,267.264 276.172,269.678 277.937 M16.278 282.151 C 12.788 283.126,9.620 285.888,7.954 289.409 C 5.838 293.882,5.578 293.780,19.020 293.780 C 31.801 293.780,31.485 293.842,31.083 291.424 C 29.881 284.200,23.424 280.155,16.278 282.151 M143.506 282.103 C 139.706 283.198,136.684 285.796,134.928 289.474 C 132.818 293.895,132.522 293.780,145.974 293.780 C 158.858 293.780,158.438 293.868,158.058 291.257 C 157.068 284.462,150.234 280.163,143.506 282.103 M291.309 282.315 C 279.762 284.593,275.379 300.014,283.719 309.022 C 291.103 316.997,303.925 314.784,308.710 304.709 L 309.886 302.233 309.887 297.752 L 309.888 293.270 308.665 290.794 C 305.395 284.176,298.630 280.871,291.309 282.315 M69.259 293.351 C 69.906 294.131,69.747 296.985,69.027 297.511 C 67.869 298.358,47.996 298.088,47.387 297.218 C 46.820 296.409,46.730 294.356,47.220 293.440 C 47.694 292.555,68.530 292.471,69.259 293.351 M0.000 310.048 L 0.000 318.979 7.993 318.979 C 16.368 318.979,16.855 318.874,13.728 317.733 C 7.655 315.519,3.076 310.376,0.994 303.429 C 0.613 302.157,0.233 301.116,0.150 301.116 C 0.068 301.116,0.000 305.136,0.000 310.048 M398.762 311.878 C 397.438 314.318,395.312 316.355,392.624 317.758 L 390.590 318.820 395.180 318.909 C 397.704 318.957,399.825 318.941,399.894 318.873 C 399.962 318.804,399.979 316.755,399.930 314.318 L 399.841 309.888 398.762 311.878 " stroke="none" fill="#040404" fill-rule="evenodd"></path></g></svg>