<?xml version="1.0" encoding="UTF-8" standalone="no"?>
<svg
   id="svg"
   version="1.1"
   width="400"
   height="151.8987341772152"
   viewBox="0, 0, 400,151.8987341772152"
   sodipodi:docname="umbrellaid.svg"
   inkscape:export-filename="/home/stelladambrumenil/Pictures/umbrellaid.png"
   inkscape:export-xdpi="300"
   inkscape:export-ydpi="300"
   inkscape:version="1.1 (1:1.1+202105261517+ce6663b3b7)"
   xmlns:inkscape="http://www.inkscape.org/namespaces/inkscape"
   xmlns:sodipodi="http://sodipodi.sourceforge.net/DTD/sodipodi-0.dtd"
   xmlns="http://www.w3.org/2000/svg"
   xmlns:svg="http://www.w3.org/2000/svg">
  <defs
     id="defs2055">
    <clipPath
       clipPathUnits="userSpaceOnUse"
       id="clipPath3902">
      <rect
         style="fill:#fbfb5e;stroke-width:7.53205;stop-color:#000000"
         id="rect3904"
         width="260.32739"
         height="67.643753"
         x="-13.993986"
         y="236.80072" />
    </clipPath>
  </defs>
  <sodipodi:namedview
     id="namedview2053"
     pagecolor="#ffffff"
     bordercolor="#666666"
     borderopacity="1.0"
     inkscape:pageshadow="2"
     inkscape:pageopacity="0.0"
     inkscape:pagecheckerboard="0"
     showgrid="false"
     inkscape:zoom="4.4547727"
     inkscape:cx="188.33733"
     inkscape:cy="76.771594"
     inkscape:window-width="2488"
     inkscape:window-height="1403"
     inkscape:window-x="2632"
     inkscape:window-y="0"
     inkscape:window-maximized="1"
     inkscape:current-layer="svgg" />
  <g
     id="svgg"
     transform="translate(1.3262636,-0.85297361)">
    <g
       id="g275103">
      <g
         id="g275098">
        <path
           id="path0"
           d="m 151.25,72.251 c -1.801,0.638 -1.939,3.023 -0.206,3.558 0.297,0.091 1.762,0.196 3.257,0.234 2.528,0.063 2.742,0.093 3.083,0.433 l 0.366,0.367 0.083,26.203 c 0.09,28.082 0.037,26.566 0.938,27.274 1.618,1.273 3.059,-0.07 3.061,-2.851 0.002,-2.565 0.381,-2.685 2.655,-0.842 3.745,3.035 5.235,3.783 9.203,4.621 4.95,1.045 10.263,0.067 14.171,-2.61 5.508,-3.771 8.306,-10.22 8.306,-19.141 0,-10.984 -5.238,-17.683 -15.917,-20.356 -1.419,-0.355 -1.927,-0.38 -9.417,-0.466 -8.306,-0.096 -8.423,-0.107 -8.786,-0.838 -0.069,-0.14 -0.165,-3.455 -0.212,-7.368 l -0.085,-7.114 -0.481,-0.502 c -0.317,-0.331 -0.759,-0.561 -1.3,-0.677 -1.267,-0.272 -7.901,-0.215 -8.719,0.075 m 138.629,-0.096 c -1.761,0.44 -2.375,2.147 -1.184,3.289 l 0.493,0.473 3.097,0.094 3.096,0.095 0.393,0.456 0.393,0.457 0.021,19.032 c 0.012,10.468 0.031,21.395 0.042,24.282 0.027,7.045 0.302,6.522 -3.478,6.618 -3.913,0.099 -4.585,0.382 -4.585,1.936 0,1.916 0.158,1.946 10.043,1.946 9.58,0 9.954,-0.07 9.956,-1.864 0.002,-1.609 -0.544,-1.865 -4.219,-1.974 l -2.985,-0.089 -0.398,-0.462 -0.397,-0.463 -10e-4,-26.032 c 0,-29.1 0.098,-26.792 -1.166,-27.527 -0.629,-0.365 -7.875,-0.577 -9.121,-0.267 m 22.038,-0.006 c -1.191,0.301 -1.75,0.901 -1.75,1.88 0,1.674 0.632,1.986 4.138,2.038 2.686,0.04 3.198,0.149 3.523,0.756 0.25,0.468 0.444,48.042 0.199,48.927 -0.287,1.036 -0.569,1.128 -3.777,1.242 -3.457,0.123 -4.089,0.426 -4.081,1.958 0.01,1.859 0.136,1.883 9.831,1.882 10.008,-0.001 10.07,-0.013 10.042,-1.909 -0.025,-1.624 -0.366,-1.787 -4.042,-1.928 -1.604,-0.061 -3.05,-0.169 -3.213,-0.239 -0.722,-0.313 -0.704,0.407 -0.704,-26.923 0,-29.204 0.106,-26.786 -1.201,-27.436 -0.677,-0.336 -7.829,-0.534 -8.965,-0.248 m -80,15.478 c -5.888,0.555 -11.285,2.83 -15.5,6.533 -2.474,2.174 -2.633,2.08 -2.75,-1.632 -0.12,-3.764 -0.124,-3.769 -3.5,-3.914 -6.636,-0.287 -8.5,0.11 -8.5,1.809 0,1.65 0.943,2.067 4.69,2.073 2.763,0.005 3.052,0.11 3.298,1.202 0.219,0.973 0.23,31.615 0.011,32.237 -0.281,0.799 -0.783,0.934 -3.916,1.052 -3.582,0.134 -4.262,0.508 -4.032,2.22 0.217,1.618 0.262,1.625 10.449,1.622 9.753,-0.003 9.756,-0.004 10.161,-1.23 0.631,-1.912 -0.477,-2.597 -4.214,-2.603 -4.97,-0.008 -4.466,1.379 -4.41,-12.145 l 0.046,-11.101 0.456,-0.809 c 3.714,-6.585 11.44,-11.274 18.576,-11.274 1.556,0 1.739,0.034 2.167,0.402 l 0.468,0.402 0.083,4.064 c 0.095,4.621 0.14,4.794 1.353,5.157 0.861,0.258 1.699,-0.129 2.223,-1.025 0.536,-0.918 0.527,-11.226 -0.01,-11.946 -0.701,-0.941 -3.781,-1.412 -7.149,-1.094 M 97.25,87.987 c -3.098,0.787 -5.213,2.047 -8.196,4.884 -2.074,1.972 -2.391,1.809 -2.539,-1.309 -0.095,-2.03 -0.112,-2.103 -0.566,-2.493 l -0.468,-0.402 h -4.732 c -5.72,0 -6.082,0.113 -6.082,1.895 0,1.478 1.122,1.938 4.731,1.938 2.314,0 2.437,0.017 2.884,0.402 l 0.468,0.402 0.048,15.933 c 0.031,10.361 -0.012,16.151 -0.121,16.556 -0.271,1.004 -0.566,1.096 -3.844,1.202 -3.546,0.115 -4.168,0.407 -4.166,1.955 0.003,1.809 0.374,1.881 9.583,1.881 9.303,0 9.583,-0.055 9.583,-1.9 0,-1.507 -0.579,-1.806 -3.753,-1.941 -2.677,-0.114 -3.102,-0.237 -3.414,-0.992 -0.121,-0.291 -0.162,-4.084 -0.13,-11.921 l 0.047,-11.494 0.448,-0.866 c 1.214,-2.353 4.956,-6.582 7.113,-8.039 6.453,-4.358 13.791,-1.342 15.858,6.518 l 0.496,1.887 10e-4,12.013 0.001,12.013 -0.427,0.4 c -0.402,0.378 -0.561,0.404 -2.791,0.456 -3.14,0.072 -3.949,0.444 -3.949,1.816 0,2.021 0.264,2.076 9.622,2.017 l 7.704,-0.048 0.432,-0.432 c 0.837,-0.837 0.799,-2.112 -0.085,-2.901 -0.331,-0.295 -0.681,-0.344 -3.021,-0.419 -2.58,-0.083 -2.659,-0.096 -3.083,-0.52 l -0.436,-0.436 0.024,-11.806 0.024,-11.806 0.615,-1.139 c 4.946,-9.157 13.775,-12.271 19.522,-6.885 3.386,3.174 3.715,4.843 3.804,19.344 0.089,14.5 0.419,13.15 -3.227,13.191 -3.235,0.037 -4.145,0.476 -4.145,2.003 0,1.865 0.308,1.921 10.28,1.856 8.781,-0.056 8.473,-0.009 8.932,-1.38 0.568,-1.698 -0.587,-2.419 -3.878,-2.421 -2.527,-10e-4 -3.485,-0.17 -3.748,-0.662 -0.109,-0.203 -0.169,-4.179 -0.17,-11.201 -0.001,-16.371 -0.608,-19.282 -4.912,-23.553 -6.214,-6.166 -15.451,-5.074 -22.198,2.625 -2.091,2.386 -2.054,2.387 -3.579,-0.032 -3.119,-4.945 -9.229,-7.542 -14.56,-6.189 m 163.083,0 c -13.262,2.377 -20.161,18.755 -13.747,32.637 4.644,10.052 16.944,13.947 28.257,8.95 5.02,-2.218 7.945,-5.125 6.841,-6.8 -1.057,-1.603 -1.91,-1.486 -4.484,0.616 -7.126,5.818 -18.03,5.923 -23.716,0.229 -3.485,-3.491 -6.166,-10.569 -4.605,-12.157 0.021,-0.022 7.463,-0.078 16.538,-0.125 l 16.5,-0.087 0.806,-0.474 c 1.684,-0.99 2.037,-3.238 1.184,-7.528 C 281.76,92.46 271.703,85.95 260.333,87.987 m 87.793,0.024 c -3.676,0.583 -8.274,2.57 -10.349,4.472 -2.134,1.956 -0.006,4.633 2.39,3.007 8.18,-5.552 19.038,-4.988 23.01,1.194 1.544,2.402 2.247,7.465 1.185,8.528 l -0.371,0.371 -8.287,0.089 c -9.694,0.104 -11.287,0.338 -14.927,2.189 -9.806,4.986 -9.33,18.28 0.802,22.411 6.956,2.836 14.755,1.414 20.786,-3.789 2.044,-1.764 2.399,-1.57 2.506,1.368 0.107,2.904 0.262,2.982 5.962,2.982 4.994,0 5.567,-0.149 5.897,-1.54 0.377,-1.584 -0.771,-2.29 -3.73,-2.296 -4.726,-0.01 -4.247,1.452 -4.191,-12.787 0.058,-14.788 -0.051,-15.976 -1.739,-18.995 -3.295,-5.892 -10.336,-8.57 -18.944,-7.204 M 20.131,88.925 c -1.01,0.549 -0.965,2.353 0.079,3.132 0.41,0.307 0.774,0.353 3.454,0.435 2.831,0.086 3.015,0.112 3.374,0.471 l 0.379,0.379 0.094,12.371 c 0.104,13.599 0.091,13.424 1.218,16.529 3.831,10.555 18.476,12.671 28.342,4.095 1.84,-1.599 2.166,-1.419 2.307,1.276 0.164,3.123 0.346,3.221 6,3.219 5.161,-0.001 5.955,-0.236 5.955,-1.763 0,-1.667 -0.569,-1.958 -4.083,-2.084 -1.558,-0.056 -2.967,-0.16 -3.131,-0.23 -0.806,-0.348 -0.786,0.136 -0.786,-18.752 0,-19.041 0.027,-18.449 -0.852,-19.065 -0.702,-0.491 -9.979,-0.4 -10.565,0.104 -0.531,0.457 -0.727,1.541 -0.414,2.296 0.375,0.906 0.915,1.054 4.222,1.155 4.1,0.125 3.61,-1.595 3.606,12.65 -0.005,13.493 0.153,12.135 -1.691,14.563 -4.753,6.259 -10.574,8.989 -16.622,7.797 -4.947,-0.975 -7.833,-3.639 -9.112,-8.41 l -0.404,-1.51 -0.001,-13.538 c 0,-14.926 0.022,-14.6 -1.012,-15.135 -0.281594,-0.145261 -1.930504,-0.22944 -3.835134,-0.254143 -2.789401,-0.03618 -6.127288,0.05522 -6.521866,0.269143 m 249.036,3.481 c 5.893,1.91 10.476,7.166 10.921,12.524 0.212,2.551 1.324,2.383 -15.802,2.394 -17.25,0.011 -16.022,0.23 -15.395,-2.741 1.354,-6.42 5.806,-11.117 11.859,-12.511 1.827,-0.42 6.683,-0.228 8.417,0.334 m -93.031,0.264 c 10.468,0.926 16.04,6.767 16.058,16.83 0.02,11.156 -5.59,18.158 -14.554,18.165 -5.855,0.006 -12.671,-4.428 -15.246,-9.915 l -0.391,-0.833 -10e-4,-11.686 C 162,92.309 161.957,92.827 163.045,92.617 c 0.773,-0.149 11.286,-0.107 13.091,0.053 m 187.57,17.172 c 0.909,0.252 0.961,0.464 0.961,3.958 v 3.155 l -0.579,1.148 c -2.711,5.369 -9.227,9.535 -14.951,9.558 -7.053,0.028 -11.294,-3.326 -11.302,-8.938 -0.006,-4.941 3.447,-8.039 9.903,-8.882 1.558,-0.203 15.235,-0.203 15.968,0.001"
           stroke="none"
           fill="#616264"
           fill-rule="evenodd"
           sodipodi:nodetypes="cccccccccccsccccccccccccccccccsscccccccccscccccscccsccccccscccccccssccsccccccccccscsssccccccssccccccccccccsccsccscccccscsccccccscccccccccccccccscccccccccsccccccccsccccccsccsccccccsccccsccccccccccccccccscccccc" />
        <path
           id="path3632"
           d="m 112.14771,238.36452 c -1.055,0.063 -2.892,0.127 -4.084,0.141 -1.191,0.014 -2.657,0.096 -3.256,0.183 -0.6,0.086 -2.55,0.273 -4.334,0.413 -5.208003,0.411 -6.600003,0.563 -9.160003,1 -1.329,0.227 -3.686,0.607 -5.238,0.844 -2.724,0.415 -3.881,0.634 -9.095,1.721 -3.509,0.732 -9.717,2.274 -11.167,2.775 -0.687,0.237 -1.77,0.542 -2.406,0.678 -2.304,0.491 -13.33,4.282 -17.177,5.905 -0.642,0.271 -1.467,0.597 -1.833,0.724 -2.415,0.838 -13.816,6.186 -17,7.976 -0.917,0.515 -2.229,1.253 -2.917,1.64 -6.953,3.918 -14.407,8.871 -20.2499998,13.456 -7.528,5.908 -17.5490002,15.815 -17.3820002,17.185 0.139,1.145 1.261,1.176 3.056,0.085 1.5000002,-0.913 4.6740002,-2.542 5.8140002,-2.985 0.557,-0.216 1.546,-0.616 2.199,-0.888 0.653,-0.273 1.70299996,-0.645 2.33299996,-0.827 0.631,-0.182 1.93400004,-0.56 2.89700004,-0.839 1.663,-0.483 4.663,-1.093 9.0829998,-1.844 3.657,-0.622 11.266,-0.881 14.941,-0.509 4.046,0.41 9.918,2.238 14.559,4.531 6.049,2.989 12.108,7.292 17.293,12.282 3.283,3.16 3.579,3.217 6.21,1.194 0.732,-0.563 1.93,-1.449 2.664,-1.968 0.733,-0.52 1.708,-1.257 2.166,-1.637 1.206,-1.001 5.224,-3.809 7.344,-5.13 4.612,-2.877 5.503,-3.387 8.239,-4.723 6.663,-3.254 12.256,-5.102 17.917003,-5.923 2.398,-0.347 11.817,-0.289 14.25,0.088 2.816,0.437 9.201,1.73 10.834,2.194 0.779,0.222 2.054,0.585 2.833,0.808 1.624,0.465 5.81,1.892 7.167,2.444 0.504,0.205 1.479,0.58 2.166,0.833 2.631,0.97 10.129,4.54 12.584,5.991 0.825,0.488 2.004,1.184 2.621,1.547 2.028,1.196 2.636,1.156 4.821,-0.316 1.379,-0.928 1.732,-1.182 4.474,-3.219 10.819,-8.035 19.487,-11.843 29.834,-13.108 6.221,-0.76 20.485,-0.036 26.833,1.362 1.054,0.232 2.88,0.61 4.057,0.84 4.966,0.971 13.019,3.966 16.125,5.997 2.216,1.449 3.3,1.747 4.026,1.109 0.682,-0.598 0.268,-1.351 -2.325,-4.232 -5.055,-5.616 -13.695,-12.973 -21.216,-18.064 -5.038,-3.41 -8.096,-5.25 -14.917,-8.972 -4.341,-2.369 -13.984,-6.644 -19.917,-8.83 -5.323,-1.961 -6.229,-2.28 -7.206,-2.528 -0.574,-0.146 -2.094,-0.595 -3.377,-0.997 -4.203,-1.316 -6.806,-2.056 -8.5,-2.414 -0.917,-0.194 -2.307,-0.532 -3.089,-0.752 -0.782,-0.22 -2.432,-0.589 -3.667,-0.821 -1.234,-0.231 -3.107,-0.609 -4.161,-0.839 -1.054,-0.23 -3.416,-0.647 -5.25,-0.926 -1.833,-0.279 -4.472,-0.691 -5.865,-0.915 -2.213,-0.357 -5.106,-0.662 -9.551,-1.005 -0.688,-0.054 -2.154,-0.205 -3.259,-0.337 -3.833,-0.459 -16.815,-0.696 -21.741,-0.398 m 14.477,5.325 c 2.533,0.183 5.693,0.441 7.023,0.573 1.329,0.132 3.054,0.287 3.833,0.346 2.577,0.193 14.102,1.91 16.583,2.47 1.009,0.228 2.921,0.613 4.25,0.856 1.329,0.244 3.242,0.662 4.25,0.929 1.009,0.268 2.584,0.64 3.5,0.826 0.917,0.187 2.38,0.556 3.25,0.821 0.871,0.265 2.135,0.604 2.81,0.754 0.674,0.149 1.874,0.496 2.666,0.772 0.793,0.275 2.041,0.652 2.774,0.839 1.2,0.305 4.145,1.28 10.25,3.393 2.086,0.722 9.036,3.482 10.917,4.336 0.55,0.25 1.622,0.708 2.383,1.019 1.343,0.55 6.271,2.87 7.617,3.587 10.377,5.527 17.728,10.082 22.5,13.941 2.805,2.268 2.385,2.772 -1.3,1.558 -1.118,-0.369 -2.652,-0.785 -3.408,-0.925 -0.756,-0.139 -2.256,-0.478 -3.333,-0.752 -2.267,-0.577 -2.755,-0.657 -8.126,-1.345 -21.305,-2.73 -32.914,0.184 -49.083,12.318 -5.124,3.845 -4.747,4.006 -4.76,-2.032 -0.011,-5.059 -0.056,-5.354 -1.371,-9.033 -4.015,-11.231 -14.567,-21.889 -28.958,-29.249 -1.744,-0.892 -3.357,-1.679 -3.583,-1.749 -0.226,-0.07 -1.199,-0.485 -2.161,-0.922 -0.963,-0.438 -2.088,-0.885 -2.5,-0.995 -0.831,-0.22 -3.613,-1.566 -3.99,-1.929 -0.33,-0.317 -0.177,-0.419 0.854,-0.569 1.426,-0.207 2.253,-0.189 7.113,0.162 m -29.936003,0.744 c 1.164,0.245 0.561,0.868 -2.708,2.796 -13.889,8.189 -27.728,24.736 -31.052,37.128 -0.135,0.504 -0.517,1.854 -0.849,3 -0.668,2.304 -1.428,7.277 -1.431,9.367 -0.002,1.042 -0.282,1.633 -0.774,1.633 -0.338,0 -2.502,-1.668 -2.81,-2.166 -0.058,-0.093 -0.794,-0.718 -1.636,-1.389 -0.842,-0.672 -1.981,-1.615 -2.531,-2.096 -0.979,-0.858 -5.445,-3.885 -7.364,-4.992 -8.609,-4.964 -13.836,-6.434 -22.886,-6.438 -7.662,-0.004 -12.27,0.602 -19.1179998,2.513 -2.09,0.583 -2.95200004,0.693 -3.13300004,0.4 -0.25,-0.405 3.56200004,-3.74 7.00100004,-6.124 0.55,-0.381 1.635,-1.155 2.411,-1.719 4.1319998,-3.004 10.3599998,-6.946 15.5049998,-9.816 1.696,-0.945 3.646,-2.033 4.334,-2.416 4.036,-2.249 11.917,-5.855 18.25,-8.352 1.741,-0.686 3.766,-1.484 4.5,-1.773 0.733,-0.289 2.008,-0.731 2.833,-0.981 0.825,-0.25 2.4,-0.755 3.5,-1.122 3.184,-1.062 6.238,-1.988 7.5,-2.275 0.642,-0.146 2.067,-0.521 3.167,-0.833 1.1,-0.312 2.675,-0.691 3.5,-0.841 0.825,-0.15 2.55,-0.527 3.833,-0.837 1.283,-0.309 2.971,-0.647 3.75,-0.749 0.779,-0.102 1.915,-0.29 2.525,-0.418 1.934,-0.404 6.304,-1.051 8.892,-1.316 3.732,-0.383 3.829,-0.387 4.791,-0.184 m 14.875003,1.168 c 3.288,0.987 7.685,2.546 8.823,3.126 0.36,0.184 1.148,0.52 1.75,0.746 1.327,0.5 6.003,2.974 8.819,4.668 15.421,9.275 26.528,24.793 26.576,37.132 0.014,3.45 -0.521,4.074 -2.402,2.806 -1.468,-0.99 -4.96,-2.923 -9.232,-5.11 -8.976,-4.594 -21.86,-8.453 -30.475,-9.127 -2.897,-0.227 -11.3,-0.114 -12.942,0.175 -2.896003,0.508 -7.716003,1.757 -9.333003,2.417 -0.963,0.393 -2.05,0.811 -2.417,0.928 -4.898,1.57 -15.114,7.837 -22.134,13.578 -2.986,2.442 -3.367,2.664 -3.868,2.248 -0.517,-0.428 -0.014,-4.092 1.01,-7.357 0.31,-0.988 0.682,-2.256 0.828,-2.818 1.017,-3.924 6.12,-14.109 9.306,-18.573 5.751,-8.056 12.979,-15.679 18.211,-19.204 0.539,-0.363 1.693,-1.151 2.564,-1.75 1.979,-1.362 4.330003,-2.723 6.916003,-4.002 l 2,-0.989 1.417,0.077 c 1.088,0.059 2.151,0.298 4.583,1.029 m 164.459,50.172 c 0.002,0.367 0.036,0.497 0.076,0.29 0.04,-0.207 0.038,-0.507 -0.003,-0.667 -0.042,-0.159 -0.075,0.011 -0.073,0.377 m -19.008,2.04 c 0.615,0.032 1.665,0.033 2.334,0.001 0.668,-0.032 0.165,-0.058 -1.118,-0.058 -1.283,-0.001 -1.83,0.025 -1.216,0.057 m 22.841,-0.004 c 0.252,0.039 0.665,0.039 0.917,0 0.252,-0.038 0.045,-0.069 -0.459,-0.069 -0.504,0 -0.71,0.031 -0.458,0.069 m -214.667003,11.502 c 0.344,0.036 0.907,0.036 1.25,0 0.344,-0.036 0.063,-0.065 -0.625,-0.065 -0.687,0 -0.968,0.029 -0.625,0.065 m 28,0 c 0.344,0.036 0.907,0.036 1.25,0 0.344,-0.036 0.063,-0.065 -0.625,-0.065 -0.687,0 -0.968,0.029 -0.625,0.065 m 107.084003,0.002 c 0.573,0.033 1.51,0.033 2.083,0 0.573,-0.032 0.104,-0.059 -1.042,-0.059 -1.145,0 -1.614,0.027 -1.041,0.059 m 29.089,0 c 0.531,0.034 1.356,0.033 1.833,0 0.478,-0.034 0.044,-0.061 -0.964,-0.061 -1.008,10e-4 -1.399,0.028 -0.869,0.061 m 88.327,0 c 0.527,0.033 1.39,0.033 1.917,0 0.527,-0.033 0.096,-0.06 -0.958,-0.06 -1.054,0 -1.486,0.027 -0.959,0.06 m -328.666003,1.002 c 1.2600002,0.028 3.3230002,0.028 4.5830002,0 1.26,-0.029 1.9448,-3.09922 -0.37509,-2.11253 -2.018013,0.85829 -5.4689102,2.08353 -4.2079102,2.11253 m 32.01,0 c 1.266,0.028 3.291,0.028 4.5,-10e-4 1.209,-0.028 0.173,-0.051 -2.302,-0.051 -2.475,0 -3.464,0.023 -2.198,0.052 m 23.333,0 c 1.266,0.028 3.291,0.028 4.5,-10e-4 1.209,-0.028 0.173,-0.051 -2.302,-0.051 -2.475,0 -3.464,0.023 -2.198,0.052 m 88.407003,0 c 1.764,0.027 4.652,0.027 6.416,0 1.765,-0.027 0.321,-0.049 -3.208,-0.049 -3.529,0 -4.973,0.022 -3.208,0.049 m 37.34,-10e-4 c 0.576,0.032 1.476,0.032 2,-0.001 0.523,-0.033 0.051,-0.06 -1.049,-0.059 -1.1,0 -1.528,0.027 -0.951,0.06 m 6.076,-0.003 c 0.344,0.036 0.907,0.036 1.25,0 0.344,-0.036 0.063,-0.065 -0.625,-0.065 -0.687,0 -0.968,0.029 -0.625,0.065 m -103.875003,0.454 c 0,0.046 0.225,0.199 0.5,0.342 0.275,0.142 0.5,0.221 0.5,0.175 0,-0.046 -0.225,-0.2 -0.5,-0.342 -0.275,-0.142 -0.5,-0.221 -0.5,-0.175 m 133.042003,0.842 c 0.002,0.366 0.036,0.497 0.076,0.289 0.04,-0.207 0.039,-0.507 -0.003,-0.666 -0.042,-0.16 -0.074,0.01 -0.073,0.377 m -152.816003,1.666 c 0,0.825 0.028,1.184 0.063,0.797 0.035,-0.387 0.035,-1.062 10e-4,-1.5 -0.035,-0.438 -0.063,-0.122 -0.064,0.703 m -23.145,16.75 c 0,9.671 0.02,13.627 0.044,8.792 0.025,-4.835 0.025,-12.748 0,-17.583 -0.024,-4.836 -0.044,-0.88 -0.044,8.791 m 45.919,-17.281 c 0,0.029 0.244,0.273 0.542,0.542 l 0.542,0.489 -0.49,-0.541 c -0.456,-0.505 -0.594,-0.619 -0.594,-0.49 m 104.397003,1.865 c 0.001,1.1 0.028,1.528 0.06,0.951 0.033,-0.576 0.033,-1.476 0,-2 -0.033,-0.523 -0.06,-0.051 -0.06,1.049 m 36.77,0 c -0.405,0.412 -0.699,0.75 -0.653,0.75 0.046,0 0.415,-0.338 0.82,-0.75 0.405,-0.413 0.698,-0.75 0.652,-0.75 -0.045,0 -0.414,0.337 -0.819,0.75 m -84.292,-0.292 c 1.627,0.027 4.29,0.027 5.917,0 1.627,-0.028 0.296,-0.05 -2.958,-0.05 -3.255,0 -4.586,0.022 -2.959,0.05 m 112.292,0.458 c 0.311,0.321 0.603,0.584 0.649,0.584 0.046,0 -0.171,-0.263 -0.482,-0.584 -0.311,-0.32 -0.603,-0.583 -0.649,-0.583 -0.046,0 0.171,0.263 0.482,0.583 m -190.091003,0.292 -0.659,0.708 0.708,-0.658 c 0.659,-0.613 0.785,-0.758 0.659,-0.758 -0.027,0 -0.346,0.318 -0.708,0.708 m 276.758003,-0.656 c 0,0.029 0.243,0.272 0.541,0.541 l 0.542,0.49 -0.49,-0.542 c -0.456,-0.505 -0.593,-0.618 -0.593,-0.489 m -129.764,3.698 c 0,1.833 0.025,2.606 0.054,1.717 0.03,-0.889 0.031,-2.389 10e-4,-3.333 -0.03,-0.945 -0.054,-0.218 -0.055,1.616 m -44.82,-1.917 c 0.637,0.642 1.196,1.167 1.241,1.167 0.046,0 -0.437,-0.525 -1.074,-1.167 -0.637,-0.642 -1.195,-1.167 -1.241,-1.167 -0.046,0 0.438,0.525 1.074,1.167 m 127.479,0.583 c 10e-4,1.009 0.028,1.4 0.061,0.869 0.034,-0.53 0.033,-1.355 0,-1.833 -0.034,-0.478 -0.061,-0.044 -0.061,0.964 m -290.6510028,7.334 c 0,4.858 0.021,6.821 0.047,4.363 0.026,-2.459 0.026,-6.434 0,-8.833 -0.026,-2.4 -0.047,-0.389 -0.047,4.47 m 59.4009998,-8.542 c 0.126,0.16 0.388,0.283 0.583,0.272 0.337,-0.018 0.338,-0.023 0.022,-0.101 -0.184,-0.045 -0.446,-0.168 -0.584,-0.272 -0.217,-0.166 -0.22,-0.153 -0.021,0.101 m 129.428003,0.333 -0.49,0.542 0.542,-0.49 c 0.505,-0.456 0.618,-0.593 0.489,-0.593 -0.029,0 -0.272,0.243 -0.541,0.541 m -109.323003,0.459 c 0.451,0.458 0.858,0.833 0.904,0.833 0.046,0 -0.286,-0.375 -0.738,-0.833 -0.451,-0.459 -0.858,-0.834 -0.904,-0.834 -0.046,0 0.286,0.375 0.738,0.834 m -24.182,2.25 c 0,1.558 0.025,2.218 0.056,1.466 0.03,-0.752 0.03,-2.027 0,-2.833 -0.031,-0.807 -0.056,-0.192 -0.056,1.367 m 8.677,-0.875 -1.162,1.208 1.208,-1.162 c 1.123,-1.08 1.285,-1.255 1.163,-1.255 -0.026,0 -0.57,0.544 -1.209,1.209 m 27.582,0.083 -0.911,0.958 0.959,-0.911 c 0.89,-0.846 1.034,-1.005 0.911,-1.005 -0.026,0 -0.458,0.431 -0.959,0.958 m 134.415003,-0.083 -0.659,0.708 0.708,-0.659 c 0.659,-0.613 0.785,-0.758 0.659,-0.758 -0.027,0 -0.346,0.319 -0.708,0.709 m 22.258,0.375 c 0.498,0.504 0.942,0.916 0.988,0.916 0.046,0 -0.324,-0.412 -0.822,-0.916 -0.498,-0.505 -0.942,-0.917 -0.988,-0.917 -0.046,0 0.324,0.412 0.822,0.917 m 62.708,-0.302 c 0.16,0.042 0.423,0.042 0.583,0 0.161,-0.042 0.029,-0.076 -0.291,-0.076 -0.321,0 -0.452,0.034 -0.292,0.076 m -120.379,2.01 -1.413,1.458 1.459,-1.413 c 0.802,-0.777 1.458,-1.433 1.458,-1.458 0,-0.121 -0.191,0.059 -1.504,1.413 m -8.25,13.125 c 0,7.975 0.021,11.262 0.046,7.304 0.024,-3.957 0.025,-10.482 0,-14.5 -0.025,-4.017 -0.046,-0.779 -0.046,7.196 m 108.334,0.167 c 0,7.791 0.02,10.954 0.045,7.029 0.025,-3.926 0.025,-10.301 0,-14.167 -0.025,-3.866 -0.045,-0.654 -0.045,7.138 m -130.08,-13.698 c 0,0.029 0.244,0.272 0.542,0.541 l 0.541,0.49 -0.489,-0.542 c -0.456,-0.505 -0.594,-0.618 -0.594,-0.489 m 51.375,1.698 c 0.002,0.366 0.036,0.497 0.076,0.289 0.04,-0.207 0.039,-0.507 -0.003,-0.666 -0.042,-0.16 -0.074,0.01 -0.073,0.377 m 39.241,0.998 c 0.152,0.319 0.307,0.551 0.343,0.515 0.076,-0.076 -0.43,-1.097 -0.544,-1.097 -0.042,0 0.048,0.262 0.201,0.582 m -195.870003,12.418 c 0,7.013 0.02,9.882 0.046,6.375 0.025,-3.506 0.025,-9.243 0,-12.75 -0.026,-3.506 -0.046,-0.637 -0.046,6.375 m 281.980003,-9.75 c -10e-4,0.825 0.028,1.184 0.062,0.797 0.035,-0.387 0.036,-1.062 10e-4,-1.5 -0.034,-0.438 -0.063,-0.122 -0.063,0.703 m -278.148003,9.917 c 0,5.454 0.021,7.685 0.047,4.958 0.026,-2.727 0.026,-7.189 0,-9.916 -0.026,-2.727 -0.047,-0.496 -0.047,4.958 m 235.484003,-7.75 c 10e-4,1.008 0.028,1.399 0.061,0.869 0.034,-0.531 0.033,-1.356 0,-1.833 -0.034,-0.478 -0.061,-0.044 -0.061,0.964 m -183.65,9.583 c 0,6.004 0.021,8.461 0.046,5.459 0.026,-3.002 0.026,-7.915 0,-10.917 -0.025,-3.002 -0.046,-0.546 -0.046,5.458 m 141.636,-9.416 c 0.001,0.458 0.033,0.626 0.072,0.372 0.038,-0.253 0.037,-0.628 -0.003,-0.833 -0.039,-0.205 -0.071,0.002 -0.069,0.461 m -31.343,0.416 c 0,0.321 0.035,0.452 0.077,0.292 0.041,-0.16 0.041,-0.423 0,-0.583 -0.042,-0.161 -0.077,-0.029 -0.077,0.291 m 101.426,-0.21 c 0.484,0.034 1.234,0.033 1.666,-10e-4 0.433,-0.034 0.036,-0.062 -0.88,-0.061 -0.917,0 -1.271,0.028 -0.786,0.062 m 12.413,-0.003 c 0.253,0.038 0.628,0.037 0.833,-0.003 0.205,-0.039 -0.002,-0.071 -0.46,-0.069 -0.459,0.001 -0.626,0.033 -0.373,0.072 m -78.161,1.38 c 0,0.504 0.032,0.71 0.07,0.458 0.038,-0.252 0.038,-0.664 0,-0.916 -0.038,-0.252 -0.07,-0.046 -0.07,0.458 m -88.166,0.833 c 0,0.504 0.031,0.711 0.069,0.459 0.038,-0.252 0.038,-0.665 0,-0.917 -0.038,-0.252 -0.069,-0.046 -0.069,0.458 m 47.992,-0.083 c 0.002,0.367 0.036,0.497 0.076,0.29 0.039,-0.208 0.038,-0.508 -0.004,-0.667 -0.042,-0.159 -0.074,0.01 -0.072,0.377 m 12.845,-0.458 c 4.018,0.025 10.543,0.024 14.5,0 3.958,-0.025 0.671,-0.046 -7.304,-0.046 -7.975,0 -11.213,0.021 -7.196,0.046 m 65.024,9.125 c 0,5.041 0.021,7.128 0.047,4.636 0.026,-2.491 0.026,-6.616 0,-9.166 -0.026,-2.55 -0.047,-0.512 -0.047,4.53 m -129.864,-7 c 0.002,0.458 0.034,0.626 0.072,0.372 0.039,-0.253 0.038,-0.628 -0.002,-0.833 -0.04,-0.205 -0.071,0.002 -0.07,0.461 m 160.078,0.375 c 2.039,0.026 5.377,0.026 7.416,0 2.04,-0.027 0.371,-0.049 -3.708,-0.049 -4.079,0 -5.748,0.022 -3.708,0.049 m -156.078,0.791 c 0.002,0.459 0.034,0.626 0.072,0.373 0.039,-0.253 0.038,-0.628 -0.002,-0.833 -0.04,-0.205 -0.071,0.002 -0.07,0.46 m 48.009,0.417 c 0,0.688 0.029,0.969 0.065,0.625 0.036,-0.344 0.036,-0.906 0,-1.25 -0.036,-0.344 -0.065,-0.062 -0.065,0.625 m -52.181,1.083 c 0.002,0.367 0.036,0.497 0.076,0.29 0.04,-0.207 0.038,-0.507 -0.003,-0.667 -0.042,-0.159 -0.075,0.011 -0.073,0.377 m 148.033,0.959 -0.658,0.708 0.708,-0.659 c 0.659,-0.613 0.785,-0.758 0.659,-0.758 -0.027,0 -0.346,0.319 -0.709,0.709 m -312.5220028,3.791 c 0,0.596 0.031,0.84 0.068,0.542 0.037,-0.298 0.037,-0.785 0,-1.083 -0.037,-0.298 -0.068,-0.055 -0.068,0.541 m 268.6850028,4.667 c 0,2.154 0.024,3.035 0.053,1.958 0.029,-1.077 0.029,-2.839 0,-3.916 -0.029,-1.077 -0.053,-0.196 -0.053,1.958 m 37.315,-2.833 c 0,0.596 0.031,0.839 0.068,0.541 0.037,-0.298 0.037,-0.785 0,-1.083 -0.037,-0.298 -0.068,-0.054 -0.068,0.542 m 35.168,3.75 c 0.001,0.641 0.031,0.883 0.067,0.538 0.036,-0.346 0.036,-0.871 -10e-4,-1.167 -0.037,-0.296 -0.066,-0.013 -0.066,0.629 m -313.644003,0.125 -0.827,0.875 0.875,-0.827 c 0.481,-0.455 0.875,-0.849 0.875,-0.875 0,-0.125 -0.154,0.014 -0.923,0.827 m 305.498003,0 -0.658,0.708 0.708,-0.659 c 0.659,-0.613 0.785,-0.758 0.659,-0.758 -0.027,0 -0.346,0.319 -0.709,0.709 m -195.075,-0.49 c 0,0.029 0.244,0.273 0.542,0.542 l 0.541,0.489 -0.489,-0.541 c -0.456,-0.505 -0.594,-0.619 -0.594,-0.49 m -51.128003,1.615 c 0,0.32 0.034,0.452 0.076,0.291 0.042,-0.16 0.042,-0.423 0,-0.583 -0.042,-0.16 -0.076,-0.029 -0.076,0.292 m 166.701003,1.875 -0.49,0.541 0.542,-0.489 c 0.505,-0.456 0.618,-0.594 0.49,-0.594 -0.029,0 -0.273,0.244 -0.542,0.542 m -90.744,1.083 -1.079,1.125 1.125,-1.079 c 1.045,-1.001 1.201,-1.171 1.079,-1.171 -0.026,0 -0.532,0.506 -1.125,1.125 m -133.089003,-0.417 -0.49,0.542 0.542,-0.49 c 0.505,-0.456 0.618,-0.593 0.489,-0.593 -0.029,0 -0.272,0.243 -0.541,0.541 m 193.260003,0.209 c 0.311,0.32 0.603,0.583 0.649,0.583 0.046,0 -0.171,-0.263 -0.482,-0.583 -0.311,-0.321 -0.603,-0.584 -0.649,-0.584 -0.046,0 0.171,0.263 0.482,0.584 m -218.7500028,0.75 c 0.637,0.641 1.195,1.166 1.241,1.166 0.046,0 -0.438,-0.525 -1.074,-1.166 -0.637,-0.642 -1.196,-1.167 -1.241,-1.167 -0.046,0 0.437,0.525 1.074,1.167 m 332.9740028,0.083 c 0,0.733 0.03,1.013 0.065,0.621 0.035,-0.392 0.035,-0.992 -10e-4,-1.334 -0.036,-0.341 -0.065,-0.02 -0.064,0.713 m -27.641,0.25 c 0.545,0.55 1.027,1 1.073,1 0.046,0 -0.362,-0.45 -0.906,-1 -0.544,-0.55 -1.027,-1 -1.073,-1 -0.046,0 0.362,0.45 0.906,1 m -270.958003,-0.543 c 0.665,0.032 1.752,0.032 2.417,0 0.664,-0.032 0.12,-0.057 -1.209,-0.057 -1.329,0 -1.873,0.025 -1.208,0.057 m 11.5,0 c 0.665,0.032 1.752,0.032 2.417,0 0.664,-0.032 0.12,-0.057 -1.209,-0.057 -1.329,0 -1.873,0.025 -1.208,0.057 m 11.673,0 c 0.577,0.033 1.477,0.032 2,-10e-4 0.524,-0.033 0.052,-0.059 -1.048,-0.059 -1.1,0 -1.528,0.027 -0.952,0.06 m 16.834,0 c 0.576,0.033 1.476,0.032 2,-10e-4 0.523,-0.033 0.051,-0.059 -1.049,-0.059 -1.1,0 -1.528,0.027 -0.951,0.06 m 10.75,0 c 0.622,0.032 1.597,0.032 2.167,0 0.569,-0.033 0.059,-0.059 -1.132,-0.059 -1.192,0 -1.658,0.027 -1.035,0.059 m 16.412,-0.006 c 0.207,0.04 0.507,0.039 0.666,-0.003 0.160003,-0.042 -0.01,-0.074 -0.377,-0.073 -0.366,0.002 -0.497,0.036 -0.289,0.076 m 2.334003,0.003 c 0.3,0.037 0.75,0.036 1,-0.002 0.25,-0.038 0.005,-0.068 -0.545,-0.067 -0.55,0.001 -0.755,0.032 -0.455,0.069 m 9.33,0.003 c 0.665,0.032 1.752,0.032 2.417,0 0.665,-0.032 0.121,-0.057 -1.208,-0.057 -1.33,0 -1.873,0.025 -1.209,0.057 m 59.584,0 c 0.618,0.032 1.631,0.032 2.25,0 0.618,-0.032 0.112,-0.058 -1.125,-0.058 -1.238,0 -1.744,0.026 -1.125,0.058 m 12.091,0 c 0.761,0.031 1.961,0.031 2.667,0 0.706,-0.031 0.083,-0.056 -1.383,-0.056 -1.467,0 -2.045,0.026 -1.284,0.056 m 74.582,0 c 0.623,0.032 1.598,0.032 2.167,0 0.569,-0.033 0.06,-0.059 -1.132,-0.059 -1.192,0 -1.657,0.027 -1.035,0.059 m 11.577,0 c 0.664,0.032 1.752,0.032 2.416,0 0.665,-0.032 0.121,-0.057 -1.208,-0.057 -1.329,0 -1.873,0.025 -1.208,0.057 m 10.076,0 c 0.614,0.032 1.664,0.032 2.333,0 0.669,-0.031 0.166,-0.058 -1.118,-0.058 -1.283,0 -1.83,0.026 -1.215,0.058 m 11.924,0 c 0.664,0.032 1.752,0.032 2.416,0 0.665,-0.032 0.121,-0.057 -1.208,-0.057 -1.329,0 -1.873,0.025 -1.208,0.057 m 46.742,0 c 0.615,0.032 1.665,0.032 2.334,0 0.668,-0.031 0.165,-0.058 -1.118,-0.058 -1.283,0 -1.83,0.026 -1.216,0.058 m -61.136,0.798 c -0.152,0.232 -0.246,0.452 -0.209,0.489 0.037,0.037 0.194,-0.152 0.348,-0.421 0.344,-0.6 0.242,-0.649 -0.139,-0.068 m -131.771,-0.137 c 0.207,0.04 0.507,0.038 0.667,-0.003 0.159,-0.042 -0.011,-0.075 -0.377,-0.073 -0.367,0.002 -0.497,0.036 -0.29,0.076 m -136.0850028,0.164 c 0.16,0.041 0.423,0.041 0.583,0 0.16,-0.042 0.029,-0.077 -0.292,-0.077 -0.321,0 -0.452,0.035 -0.291,0.077 m 220.0000028,0 c 0.16,0.041 0.423,0.041 0.583,0 0.16,-0.042 0.029,-0.077 -0.292,-0.077 -0.321,0 -0.452,0.035 -0.291,0.077 m 3.252,0.003 c 0.207,0.039 0.507,0.038 0.666,-0.004 0.16,-0.042 -0.01,-0.074 -0.377,-0.072 -0.366,0.002 -0.497,0.036 -0.289,0.076 m -171.919003,1.132 c 0.002,0.366 0.036,0.497 0.076,0.289 0.04,-0.207 0.039,-0.507 -0.003,-0.666 -0.042,-0.16 -0.074,0.01 -0.073,0.377 m 65.833003,1.865 c 0.161,0.041 0.423,0.041 0.584,0 0.16,-0.042 0.029,-0.077 -0.292,-0.077 -0.321,0 -0.452,0.035 -0.292,0.077 m -95.990003,0.176 c 1.082,0.029 2.807,0.029 3.833,0 1.026,-0.03 0.141,-0.053 -1.968,-0.053 -2.108,0 -2.948,0.024 -1.865,0.053 m 16.835,0 c 2.092,0.027 5.467,0.027 7.5,0 2.033,-0.026 0.322,-0.048 -3.803,-0.048 -4.125,0 -5.789,0.022 -3.697,0.048 m 28.5,0 c 2,0.027 5.225,0.027 7.167,0 1.941,-0.027 0.305,-0.048 -3.637,-0.048 -3.941,0 -5.53,0.022 -3.53,0.048 m 28.000003,0 c 2.092,0.027 5.467,0.027 7.5,0 2.033,-0.026 0.322,-0.048 -3.803,-0.048 -4.125,0 -5.789,0.022 -3.697,0.048 m 70.917,0 c 2.321,0.026 6.071,0.026 8.333,0 2.263,-0.026 0.364,-0.047 -4.22,-0.047 -4.583,0 -6.434,0.021 -4.113,0.047 m 86.333,0 c 2.229,0.026 5.829,0.026 8,0 2.171,-0.026 0.347,-0.048 -4.053,-0.048 -4.4,0 -6.176,0.022 -3.947,0.048 m 21.739,0 c 2.177,0.027 5.739,0.027 7.916,0 2.177,-0.026 0.396,-0.048 -3.958,-0.048 -4.354,0 -6.135,0.022 -3.958,0.048 m 52.833,0 c 1.077,0.029 2.84,0.029 3.917,0 1.077,-0.029 0.196,-0.053 -1.959,-0.053 -2.154,0 -3.035,0.024 -1.958,0.053 m -325.8330028,0.831 c 0.435,0.035 1.1479998,0.035 1.5829998,0 0.435,-0.034 0.079,-0.062 -0.7919998,-0.062 -0.871,0 -1.227,0.028 -0.791,0.062 m 133.6660028,0 c 0.436,0.035 1.148,0.035 1.584,0 0.435,-0.034 0.079,-0.062 -0.792,-0.062 -0.871,0 -1.227,0.028 -0.792,0.062 m 86.84,0.001 c 0.53,0.033 1.355,0.033 1.833,-0.001 0.478,-0.033 0.044,-0.06 -0.964,-0.06 -1.009,0 -1.4,0.028 -0.869,0.061 m 84.749,0 c 0.485,0.034 1.235,0.033 1.667,-0.001 0.432,-0.034 0.036,-0.062 -0.881,-0.061 -0.916,0 -1.27,0.028 -0.786,0.062"
           stroke="none"
           fill="#f5bc48"
           fill-rule="evenodd"
           sodipodi:nodetypes="csccccccccsccccccccccccccccccccccsccccccccsccccccccscsccccccccccccccccsccccccccccccsccccccccccscccccccccccccscssscsccccccccccccccscccccccccccscccsccccscccscccscccsccccccsscccscccscccsccsscccccccscccssccccccsccccccccccccccccscscccsccscsccccsccccccccsccsssccccccsscccccccccsccscsccccccccsccccsccccsccscscccsccccscccsccsscccccccccccssccccccccccssccccccccccccccccccccccccccssccsscccscccsccsscccscccscccsccssccscccccsccssccssccsscccsccccsccccsccccccccsccccsccccsccccsccscsccsssccscccssscccscccscccscccscccsccccccssccsscccsccsscccsccsscccsccsscccsccsccccscccscccscccscccccccscccscccsccsscccsccssccsscccsccsscccscccscccsccscc"
           clip-path="url(#clipPath3902)"
           transform="translate(34.019293,-221.69052)" />
      </g>
    </g>
  </g>
</svg>
